<svg width="64" height="64" viewBox="0 0 64 64" fill="none" xmlns="http://www.w3.org/2000/svg">
<rect width="64" height="64" rx="32" fill="#F7F7F7"/>
<path d="M41.3333 36H46.6666V20H41.3333M36 20H24C22.8933 20 21.9466 20.6667 21.5466 21.6267L17.52 31.0267C17.4 31.3333 17.3333 31.6533 17.3333 32V34.6667C17.3333 35.3739 17.6143 36.0522 18.1144 36.5523C18.6145 37.0524 19.2927 37.3333 20 37.3333H28.4133L27.1466 43.4267C27.12 43.56 27.1066 43.6933 27.1066 43.84C27.1066 44.4 27.3333 44.8933 27.6933 45.2533L29.1066 46.6667L37.88 37.88C38.3733 37.4 38.6666 36.7333 38.6666 36V22.6667C38.6666 21.9594 38.3857 21.2811 37.8856 20.781C37.3855 20.281 36.7072 20 36 20Z" fill="#7A0000"/>
</svg>
