<svg width="64" height="64" viewBox="0 0 64 64" fill="none" xmlns="http://www.w3.org/2000/svg">
<rect width="64" height="64" rx="32" fill="#F7F7F7"/>
<path d="M46.6666 29.334C46.6666 28.6267 46.3857 27.9485 45.8856 27.4484C45.3855 26.9483 44.7072 26.6673 44 26.6673H35.5733L36.8533 20.574C36.88 20.4407 36.8933 20.294 36.8933 20.1473C36.8933 19.6007 36.6666 19.094 36.3066 18.734L34.8933 17.334L26.12 26.1073C25.6266 26.6007 25.3333 27.2673 25.3333 28.0007V41.334C25.3333 42.0412 25.6143 42.7195 26.1144 43.2196C26.6145 43.7197 27.2927 44.0006 28 44.0006H40C41.1066 44.0006 42.0533 43.334 42.4533 42.374L46.48 32.974C46.6 32.6673 46.6666 32.3473 46.6666 32.0007V29.334ZM17.3333 44.0006H22.6666V28.0007H17.3333V44.0006Z" fill="#7A0000"/>
</svg>
