<svg width="64" height="64" viewBox="0 0 64 64" fill="none" xmlns="http://www.w3.org/2000/svg">
<rect width="64" height="64" rx="32" fill="#F7F7F7"/>
<path d="M32 20C30.5333 20 29.3333 21.2 29.3333 22.6667C29.3333 24.1333 30.5333 25.3333 32 25.3333C33.4666 25.3333 34.6666 24.1333 34.6666 22.6667C34.6666 21.2 33.4666 20 32 20ZM32 38.6667C30.5333 38.6667 29.3333 39.8667 29.3333 41.3333C29.3333 42.8 30.5333 44 32 44C33.4666 44 34.6666 42.8 34.6666 41.3333C34.6666 39.8667 33.4666 38.6667 32 38.6667ZM32 29.3333C30.5333 29.3333 29.3333 30.5333 29.3333 32C29.3333 33.4667 30.5333 34.6667 32 34.6667C33.4666 34.6667 34.6666 33.4667 34.6666 32C34.6666 30.5333 33.4666 29.3333 32 29.3333Z" fill="#7A0000"/>
</svg>
